<svg width="20" height="18" viewBox="0 0 20 18" fill="none" xmlns="http://www.w3.org/2000/svg">
<line x1="12.75" y1="13.25" x2="19.25" y2="13.25" stroke="#606060" stroke-width="1.5" stroke-linecap="round" stroke-linejoin="round"/>
<path d="M12 5.58333C12 8.11464 10.2091 11 8 11C5.79086 11 4 8.11464 4 5.58333C4 3.05203 5.79086 1 8 1C10.2091 1 12 3.05203 12 5.58333Z" stroke="#606060" stroke-width="1.5" stroke-linecap="round" stroke-linejoin="round"/>
<path d="M12 17H7.5L3 17C1.89543 17 0.968782 16.0773 1.35558 15.0427C1.39822 14.9286 1.44464 14.8156 1.49478 14.7039C1.82144 13.9759 2.30022 13.3145 2.90381 12.7573C3.50739 12.2002 4.22394 11.7582 5.01256 11.4567C5.80117 11.1552 6.64641 11 7.5 11C8.35359 11 8.21138 10.6985 9 11" stroke="#606060" stroke-width="1.5" stroke-linecap="round" stroke-linejoin="round"/>
<line x1="15.75" y1="9.75" x2="15.75" y2="16.25" stroke="#606060" stroke-width="1.5" stroke-linecap="round" stroke-linejoin="round"/>
</svg>
