<svg width="36" height="36" viewBox="0 0 36 36" fill="none" xmlns="http://www.w3.org/2000/svg">
<circle cx="18" cy="18" r="18" fill="white"/>
<rect x="11.5" y="11.5" width="13" height="13" rx="3.5" stroke="#3F0F3F"/>
<rect x="19" y="10" width="8" height="7" fill="white"/>
<path d="M23.2929 10.7071C23.6834 10.3166 24.3166 10.3166 24.7071 10.7071L25.3232 11.3232C25.7137 11.7137 25.7137 12.3469 25.3232 12.7374L18.2834 19.7771C18.0947 19.9658 17.8383 20.0713 17.5714 20.07L16.4633 20.0645C16.1891 20.0632 15.9671 19.8412 15.9657 19.567L15.9603 18.4588C15.959 18.1919 16.0644 17.9356 16.2532 17.7468L23.2929 10.7071Z" stroke="#3F0F3F"/>
<circle cx="24.5" cy="17.5" r="0.5" fill="#3F0F3F"/>
<line x1="22.3536" y1="11.6464" x2="24.4749" y2="13.7678" stroke="#3F0F3F"/>
<circle cx="19.5" cy="11.5" r="0.5" fill="#3F0F3F"/>
</svg>
