<svg width="11" height="13" viewBox="0 0 11 13" fill="none" xmlns="http://www.w3.org/2000/svg">
<path d="M5.69294 0.890181C5.64491 0.879146 5.59518 0.877685 5.54658 0.885882C5.49799 0.894079 5.45149 0.911773 5.40974 0.937953L0.965162 3.73277C0.880993 3.78572 0.821298 3.86992 0.799204 3.96688C0.77711 4.06383 0.794427 4.16558 0.847346 4.24977C1.11836 4.68076 1.53326 4.85839 1.84843 4.93021C1.97786 4.9597 2.0964 4.97287 2.19131 4.97835L3.9608 7.79235C3.84507 8.02168 3.74945 8.2606 3.67499 8.50644C3.52437 9.01212 3.41726 9.7454 3.80571 10.3632C3.85866 10.4473 3.94287 10.507 4.03982 10.5291C4.13677 10.5512 4.23852 10.5339 4.32271 10.481L6.86269 8.88442L8.65928 11.7415C8.76938 11.9166 9.40036 12.6042 9.57545 12.4941C9.75054 12.384 9.40435 11.5167 9.29409 11.3423L7.4975 8.48524L10.0369 6.88779C10.1211 6.83484 10.1808 6.75064 10.2029 6.65369C10.225 6.55674 10.2076 6.45498 10.1547 6.37079C9.76628 5.75304 9.05916 5.53113 8.53799 5.44852C8.28416 5.40909 8.02739 5.39175 7.77057 5.39671L6.00091 2.58344C6.04542 2.47644 6.0809 2.36591 6.10698 2.25299C6.17864 1.93856 6.19832 1.48766 5.92674 1.05577C5.87379 0.971804 5.78971 0.912257 5.69294 0.890181ZM5.25177 2.41426L5.25211 2.41279L5.25177 2.41426ZM5.25211 2.41279L5.25177 2.41426C5.216 2.47377 5.19745 2.54205 5.19819 2.61149C5.19894 2.68093 5.21895 2.74879 5.256 2.80753L7.25206 5.98085C7.28919 6.03962 7.34193 6.08691 7.40439 6.11745C7.46684 6.14798 7.53655 6.16055 7.60574 6.15376L7.6072 6.15409L7.6181 6.1535C7.69242 6.14851 7.76688 6.14598 7.84137 6.14592C8.0351 6.14493 8.22861 6.15919 8.42011 6.18857C8.73336 6.23842 9.0301 6.33374 9.25433 6.49407L4.3071 9.60434C4.26065 9.33221 4.30315 9.02421 4.39395 8.72029C4.47211 8.46328 4.57809 8.21556 4.70999 7.98154L4.71508 7.9727L4.71525 7.97197C4.75151 7.91249 4.7705 7.84409 4.77007 7.77442C4.76964 7.70476 4.74981 7.6366 4.71282 7.57757L2.71619 4.40335C2.67781 4.3419 2.62246 4.29289 2.55682 4.26223C2.49119 4.23158 2.41807 4.22059 2.34632 4.2306L2.27246 4.23069C2.20601 4.22862 2.11469 4.22089 2.01524 4.19822C1.93188 4.17923 1.84889 4.15185 1.77109 4.11182L5.40291 1.8287C5.40528 1.91616 5.39383 2.00355 5.375 2.08618C5.34875 2.19973 5.30773 2.30934 5.253 2.41223L5.25211 2.41279Z" fill="#6F6F6F"/>
</svg>
